<svg id="Gruppe_1" data-name="Gruppe 1" xmlns="http://www.w3.org/2000/svg" width="269.981" height="171.688" viewBox="0 0 269.981 171.688">
  <path id="Pfad_1" data-name="Pfad 1" d="M237.133,41.069c0,22.054-10.2,35.452-29.761,35.452S176.9,64.309,176.9,43.8V.4h19.682V40.476c0,10.553,4.268,15.651,10.315,15.651s10.553-5.1,10.553-16.955V.4h19.682Z" transform="translate(32.848 0.074)" fill="#c73734"/>
  <path id="Pfad_2" data-name="Pfad 2" d="M0,134.7H3.557c2.371,0,3.32.711,3.32,2.846,0,1.3-.119,2.253-1.66,2.727h0a1.817,1.817,0,0,1,1.541,1.9v2.016A6.242,6.242,0,0,0,7,146.438H4.506c-.356-.356-.356-1.423-.356-2.253v-1.9c0-.711-.237-.949-1.067-.949H2.727v4.98H0Zm2.727,4.624H3.32c.949,0,.949-.593.949-1.3,0-.83,0-1.3-1.067-1.3H2.727Z" transform="translate(0 25.012)" fill="#c73734"/>
  <path id="Pfad_3" data-name="Pfad 3" d="M7.7,134.7h5.928v2.253h-3.2v2.253h2.846v2.253H10.427v2.609h3.32v2.253H7.7Z" transform="translate(1.43 25.012)" fill="#c73734"/>
  <path id="Pfad_4" data-name="Pfad 4" d="M14.7,137.92c0-2.253,1.423-3.32,3.438-3.32,1.779,0,3.438.711,3.438,2.846v1.3h-2.49v-1.186c0-.593-.237-.949-.83-.949-.711,0-.83.711-.83,1.067v5.81c0,.356,0,1.067.83,1.067.593,0,.83-.237.83-.83v-1.541h-.949v-2.134H21.7v6.4H19.324v-.949h0a2.086,2.086,0,0,1-2.016,1.186c-1.9,0-2.49-1.66-2.49-3.32V137.92Z" transform="translate(2.73 24.994)" fill="#c73734"/>
  <rect id="Rechteck_1" data-name="Rechteck 1" width="2.727" height="11.62" transform="translate(26.559 159.712)" fill="#c73734"/>
  <path id="Pfad_5" data-name="Pfad 5" d="M29.327,137.7c0-.356,0-1.067.83-1.067s.83.711.83,1.067v5.81c0,.356,0,1.067-.83,1.067s-.83-.711-.83-1.067ZM26.6,143.156a3.146,3.146,0,0,0,3.438,3.32,3.146,3.146,0,0,0,3.438-3.32V137.82c0-2.253-1.423-3.32-3.438-3.32s-3.438,1.067-3.438,3.32v5.336Z" transform="translate(4.939 24.975)" fill="#c73734"/>
  <path id="Pfad_6" data-name="Pfad 6" d="M34.3,134.7h2.964l2.134,6.877h0V134.7h2.609v11.62H39.161l-2.253-7.233h0v7.233H34.3Z" transform="translate(6.369 25.012)" fill="#c73734"/>
  <path id="Pfad_7" data-name="Pfad 7" d="M46.213,136.479h0l.711,5.691H45.5ZM42.3,146.32h2.609l.237-2.134h1.9l.237,2.134h2.846L47.873,134.7H44.316Z" transform="translate(7.855 25.012)" fill="#c73734"/>
  <path id="Pfad_8" data-name="Pfad 8" d="M50.4,134.7h2.609v9.367h2.964v2.253H50.4Z" transform="translate(9.359 25.012)" fill="#c73734"/>
  <path id="Pfad_9" data-name="Pfad 9" d="M56.7,134.7h5.928v2.253h-3.32v2.253h2.846v2.253H59.309v2.609h3.438v2.253H56.7Z" transform="translate(10.528 25.012)" fill="#c73734"/>
  <path id="Pfad_10" data-name="Pfad 10" d="M66.09,142.463v.83c0,.593.119,1.186.949,1.186a.873.873,0,0,0,.949-.949c0-1.067-1.067-1.66-2.134-2.49s-2.134-1.541-2.134-3.32c0-2.253,1.3-3.32,3.438-3.32,2.371,0,3.32,1.186,3.32,2.964v1.067h-2.49v-.593c0-.593-.119-1.3-.83-1.3a.846.846,0,0,0-.949.83c0,.711,1.186,1.541,2.253,2.371.949.83,2.253,1.423,2.253,3.794,0,1.186-.83,2.964-3.676,2.964-2.609,0-3.439-1.66-3.439-2.846v-1.3h2.49Z" transform="translate(11.81 24.956)" fill="#c73734"/>
  <path id="Pfad_11" data-name="Pfad 11" d="M78.713,136.479h0l.593,5.691H78ZM74.8,146.32h2.727l.237-2.134h1.9l.237,2.134h2.846L80.61,134.7H77.053Z" transform="translate(13.889 25.012)" fill="#c73734"/>
  <path id="Pfad_12" data-name="Pfad 12" d="M82.9,134.7h2.727v8.537c0,.593,0,1.186.83,1.186s.83-.593.83-1.186V134.7H89.9v8.418a3.441,3.441,0,0,1-6.877,0V134.7Z" transform="translate(15.393 25.012)" fill="#c73734"/>
  <path id="Pfad_13" data-name="Pfad 13" d="M93.09,142.463v.83c0,.593.119,1.186.949,1.186a.873.873,0,0,0,.949-.949c0-1.067-1.067-1.66-2.134-2.49s-2.134-1.541-2.134-3.32c0-2.253,1.3-3.32,3.438-3.32,2.371,0,3.32,1.186,3.32,2.964v1.067h-2.49v-.593c0-.593-.119-1.3-.83-1.3a.846.846,0,0,0-.949.83c0,.711,1.186,1.541,2.253,2.371.949.83,2.253,1.423,2.253,3.794,0,1.186-.83,2.964-3.676,2.964-2.608,0-3.438-1.66-3.438-2.846v-1.3h2.49Z" transform="translate(16.823 24.956)" fill="#c73734"/>
  <path id="Pfad_14" data-name="Pfad 14" d="M101.027,136.6h.593c.593,0,.83.474.83,1.3,0,.711-.119,1.3-.949,1.3h-.474V136.6ZM98.3,146.32h3.794c2.371,0,3.083-1.541,3.083-3.438,0-1.541-.474-2.49-1.779-2.727h0c1.3-.474,1.541-1.541,1.541-2.727,0-2.016-.949-2.727-2.846-2.727H98.419v11.62Zm2.727-5.217h.593c.83,0,.949.83.949,1.541,0,1.186-.119,1.541-.949,1.541h-.593Z" transform="translate(18.253 25.012)" fill="#c73734"/>
  <rect id="Rechteck_2" data-name="Rechteck 2" width="2.727" height="11.62" transform="translate(125.683 159.712)" fill="#c73734"/>
  <path id="Pfad_15" data-name="Pfad 15" d="M110.2,134.7h2.727v9.367h2.964v2.253H110.2Z" transform="translate(20.463 25.012)" fill="#c73734"/>
  <path id="Pfad_16" data-name="Pfad 16" d="M119.227,136.6h.356c.711,0,1.067.356,1.067.949v5.691c0,.711-.356.949-1.067.949h-.356ZM116.5,146.32h4.031a2.7,2.7,0,0,0,2.846-2.964v-5.573c0-1.779-.593-3.083-2.846-3.083H116.5Z" transform="translate(21.633 25.012)" fill="#c73734"/>
  <path id="Pfad_17" data-name="Pfad 17" d="M124.2,134.7h2.727v8.537c0,.593,0,1.186.83,1.186s.83-.593.83-1.186V134.7H131.2v8.418a3.441,3.441,0,0,1-6.877,0V134.7Z" transform="translate(23.062 25.012)" fill="#c73734"/>
  <path id="Pfad_18" data-name="Pfad 18" d="M131.9,134.7h2.964L137,141.577h0V134.7h2.609v11.62h-2.964l-2.134-7.233h0v7.233H131.9Z" transform="translate(24.492 25.012)" fill="#c73734"/>
  <path id="Pfad_19" data-name="Pfad 19" d="M140.3,137.92c0-2.253,1.423-3.32,3.438-3.32,1.779,0,3.438.711,3.438,2.846v1.3h-2.609v-1.186c0-.593-.237-.949-.83-.949-.711,0-.83.711-.83,1.067v5.81c0,.356,0,1.067.83,1.067.593,0,.83-.237.83-.83v-1.541h-.949v-2.134h3.557v6.4h-2.371v-.949h0a2.086,2.086,0,0,1-2.016,1.186c-1.9,0-2.49-1.66-2.49-3.32V137.92Z" transform="translate(26.052 24.994)" fill="#c73734"/>
  <path id="Pfad_20" data-name="Pfad 20" d="M150.39,142.463v.83c0,.593.119,1.186.949,1.186a.873.873,0,0,0,.949-.949c0-1.067-1.067-1.66-2.134-2.49s-2.134-1.541-2.134-3.32c0-2.253,1.3-3.32,3.438-3.32,2.371,0,3.32,1.186,3.32,2.964v1.067h-2.49v-.593c0-.593-.119-1.3-.83-1.3a.846.846,0,0,0-.949.83c0,.711,1.067,1.541,2.253,2.371.949.83,2.253,1.423,2.253,3.794,0,1.186-.83,2.964-3.676,2.964-2.609,0-3.438-1.66-3.438-2.846v-1.3h2.49Z" transform="translate(27.463 24.956)" fill="#c73734"/>
  <path id="Pfad_21" data-name="Pfad 21" d="M155.537,134.7h6.521v2.134l-3.794,7.233h3.794v2.253H155.3v-2.253l3.794-7.114h-3.557Z" transform="translate(28.837 25.012)" fill="#c73734"/>
  <path id="Pfad_22" data-name="Pfad 22" d="M162.6,134.7h5.928v2.253h-3.2v2.253h2.846v2.253h-2.846v2.609h3.439v2.253H162.6Z" transform="translate(30.193 25.012)" fill="#c73734"/>
  <path id="Pfad_23" data-name="Pfad 23" d="M169.6,134.7h2.964l2.134,6.877h0V134.7h2.609v11.62h-2.846l-2.253-7.233h0v7.233H169.6Z" transform="translate(31.493 25.012)" fill="#c73734"/>
  <path id="Pfad_24" data-name="Pfad 24" d="M177.6,134.7h6.166v2.253h-1.779v9.367H179.26v-9.367H177.6Z" transform="translate(32.978 25.012)" fill="#c73734"/>
  <path id="Pfad_25" data-name="Pfad 25" d="M184.337,134.7h3.557c2.371,0,3.32.711,3.32,2.846,0,1.3-.119,2.253-1.66,2.727h0a1.817,1.817,0,0,1,1.541,1.9v2.016a6.242,6.242,0,0,0,.237,2.253h-2.609c-.356-.356-.356-1.423-.356-2.253v-1.9c0-.711-.237-.949-1.067-.949h-.474v4.98H184.1V134.7Zm2.608,4.624h.593c.949,0,.949-.593.949-1.3,0-.83,0-1.3-1.067-1.3h-.474Z" transform="translate(34.185 25.012)" fill="#c73734"/>
  <path id="Pfad_26" data-name="Pfad 26" d="M192,134.7h2.609v8.537c0,.593,0,1.186.83,1.186s.83-.593.83-1.186V134.7h2.609v8.418a3.441,3.441,0,0,1-6.877,0Z" transform="translate(35.652 25.012)" fill="#c73734"/>
  <path id="Pfad_27" data-name="Pfad 27" d="M199.7,134.7h4.268l.711,5.691h0l.83-5.691h4.15v11.62h-2.609v-9.13h0l-1.423,9.13H203.85l-1.541-9.13h0v9.13H199.7Z" transform="translate(37.082 25.012)" fill="#c73734"/>
  <path id="Pfad_28" data-name="Pfad 28" d="M217.413,136.479h0l.711,5.691h-1.3ZM213.5,146.32h2.727l.237-2.134h1.9l.237,2.134h2.846L219.31,134.7h-3.557Z" transform="translate(39.644 25.012)" fill="#c73734"/>
  <path id="Pfad_29" data-name="Pfad 29" d="M221.6,134.7h2.609v8.537c0,.593,0,1.186.83,1.186s.83-.593.83-1.186V134.7H228.6v8.418a3.441,3.441,0,0,1-6.877,0V134.7Z" transform="translate(41.148 25.012)" fill="#c73734"/>
  <path id="Pfad_30" data-name="Pfad 30" d="M53.949,55.253c-3.083-8.893-5.217-14.11-9.248-16.481,6.047-3.557,9.011-9.485,9.011-17.43C53.712,9.723,47.19,0,32.132,0H0V75.054H18.378V12.094l7,.119c6.166,0,9.723,3.32,9.723,9.841s-3.676,9.96-8.537,10.078v11.62c3.913.237,7,7.588,11.145,20.275l3.557,11.145H60.589Z" fill="#c73734"/>
  <path id="Pfad_31" data-name="Pfad 31" d="M58.9,92.994a71.666,71.666,0,0,0,16.007,21.935c17.311-5.691,34.385-17.074,51.933-17.074,16.244,0,32.844,11.027,50.273,16.837A75.363,75.363,0,0,0,193,92.638c-23.477-1.3-45.412-20.038-66.636-20.038C103.719,72.837,81.665,92.045,58.9,92.994Z" transform="translate(10.937 13.481)" fill="none" stroke="#fff" stroke-linecap="round" stroke-linejoin="round" stroke-miterlimit="10" stroke-width="0.003"/>
  <path id="Pfad_32" data-name="Pfad 32" d="M72.4,110.955a74.069,74.069,0,0,0,102.206-.119C157.177,105.027,140.577,94,124.333,94,106.785,93.882,89.711,105.264,72.4,110.955Z" transform="translate(13.444 17.454)" fill="#aaabab"/>
  <path id="Pfad_33" data-name="Pfad 33" d="M240.157,74.4c-18.971,1.66-42.329,15.888-59.166,17.9-1.3.119-2.49.237-3.676.237a20.1,20.1,0,0,1-2.727-.119A75.364,75.364,0,0,1,158.7,114.476a59.089,59.089,0,0,0,19.09,3.557,32.192,32.192,0,0,0,3.32-.119c16.718-1.779,39.128-16.481,59.166-17.667C240.157,91.711,240.038,82.937,240.157,74.4Z" transform="translate(29.469 13.815)" fill="#aaabab"/>
  <path id="Pfad_34" data-name="Pfad 34" d="M69.837,92.994h-1.9a45.315,45.315,0,0,1-12.45-1.9C37.7,86.235,19.327,73.311,0,72.6V98.092c19.445.356,37.823,13.161,55.49,18.141A48.789,48.789,0,0,0,68.3,118.249a56.44,56.44,0,0,0,17.43-3.2A75.364,75.364,0,0,1,69.837,92.994Z" transform="translate(0 13.481)" fill="#aaabab"/>
  <path id="Pfad_35" data-name="Pfad 35" d="M137.558,1l25.137,73.631H90.842L115.86,1.119A74.072,74.072,0,0,0,52.9,74.394a65.856,65.856,0,0,0,.711,9.723,72.032,72.032,0,0,0,6.521,22.054c22.765-.949,44.819-20.157,67.584-20.157,21.224,0,43.159,18.615,66.636,20.038a72.122,72.122,0,0,0,6.4-21.935,87.365,87.365,0,0,0,.593-9.723A74.449,74.449,0,0,0,137.558,1Z" transform="translate(9.823 0.186)" fill="#aaabab"/>
  <path id="Pfad_36" data-name="Pfad 36" d="M134.125,70.973,118.355,20.7,101.4,70.973Z" transform="translate(18.829 3.844)" fill="#c73734"/>
</svg>
